<!DOCTYPE svg PUBLIC "-//W3C//DTD SVG 20010904//EN" "http://www.w3.org/TR/2001/REC-SVG-20010904/DTD/svg10.dtd">
<svg version="1.0" xmlns="http://www.w3.org/2000/svg" width="1024px" height="1024px" viewBox="0 0 10240 10240" preserveAspectRatio="xMidYMid meet">
<g id="layer101" fill="#000000" stroke="none">
 <path d="M473 9692 c-70 -25 -114 -60 -184 -149 -79 -100 -92 -127 -86 -177 4 -34 15 -50 58 -88 70 -64 98 -75 226 -92 68 -9 152 -28 216 -50 58 -20 113 -36 124 -36 10 0 42 -11 71 -25 48 -22 52 -27 52 -59 0 -48 54 -91 100 -81 l31 7 -15 -37 c-9 -21 -16 -51 -16 -67 0 -17 -8 -52 -17 -79 -21 -57 -11 -102 24 -107 29 -4 50 29 63 98 10 54 33 100 50 100 13 0 39 -28 56 -63 36 -71 77 -86 120 -46 l23 21 29 -23 c24 -19 29 -30 25 -54 -4 -28 10 -44 174 -210 179 -181 288 -278 439 -392 204 -155 506 -329 736 -424 32 -13 77 -46 113 -80 66 -64 145 -105 218 -115 47 -7 50 -9 99 -81 126 -188 375 -441 560 -570 32 -23 73 -62 90 -89 33 -48 37 -51 157 -95 18 -7 55 -34 82 -60 l49 -48 0 -123 c0 -252 41 -345 162 -364 21 -4 38 -10 38 -13 0 -4 22 -34 49 -68 l49 -60 -19 -57 c-11 -32 -27 -92 -35 -134 -10 -49 -24 -86 -38 -102 -43 -47 -56 -75 -56 -116 0 -31 -8 -52 -34 -85 -18 -25 -53 -76 -76 -114 -23 -39 -43 -71 -44 -72 0 0 -17 -4 -37 -8 -33 -6 -37 -4 -49 24 -16 40 -68 86 -115 101 -33 11 -41 21 -80 105 -98 211 -212 343 -420 485 -102 70 -114 81 -172 169 -35 52 -77 130 -95 175 -30 74 -33 91 -34 201 -2 137 7 157 74 170 48 9 62 21 62 56 0 81 -170 77 -250 -6 -55 -57 -77 -47 -173 78 -33 44 -78 69 -115 65 -36 -4 -41 -46 -12 -94 12 -19 21 -37 18 -39 -2 -2 -63 15 -135 37 -122 39 -134 41 -173 29 -34 -10 -41 -16 -38 -34 2 -16 22 -31 75 -57 70 -34 136 -83 88 -66 -102 38 -252 43 -370 13 -41 -10 -51 -16 -53 -36 -5 -31 12 -41 69 -41 25 0 88 -7 140 -15 75 -13 116 -27 204 -70 108 -54 113 -57 240 -193 109 -117 135 -150 159 -208 112 -267 293 -559 455 -736 36 -40 56 -72 67 -110 23 -75 77 -176 124 -226 22 -24 61 -84 86 -134 80 -160 206 -361 255 -410 37 -36 63 -52 114 -67 101 -32 178 -105 211 -203 l16 -48 -74 -73 c-101 -100 -131 -158 -136 -265 -8 -152 43 -271 164 -381 32 -30 88 -68 124 -85 59 -28 74 -31 165 -31 128 0 177 18 260 95 34 32 71 61 83 64 11 4 27 17 36 30 9 15 29 26 53 31 60 10 83 30 83 70 0 31 46 124 62 125 4 0 10 -10 13 -21 4 -12 42 -58 85 -103 l77 -81 47 -164 c26 -90 59 -193 73 -230 19 -50 25 -88 27 -156 1 -85 4 -95 49 -186 26 -54 44 -104 41 -112 -3 -9 11 -76 31 -148 63 -227 74 -257 94 -264 16 -5 27 -35 55 -153 73 -306 73 -308 47 -398 -12 -43 -51 -140 -86 -214 -165 -345 -147 -603 54 -792 166 -156 390 -191 596 -93 184 89 295 266 295 472 0 147 -42 260 -133 360 -29 31 -75 71 -104 89 -69 45 -189 84 -255 84 -76 0 -85 8 -64 59 20 51 20 102 1 168 -26 86 -57 416 -49 523 4 67 1 129 -10 210 -23 156 -33 188 -68 224 -27 27 -35 48 -63 181 -18 82 -50 195 -70 250 -25 65 -41 128 -46 180 -5 44 -15 99 -23 122 -8 23 -18 93 -21 155 -9 142 -31 242 -90 388 -58 147 -71 223 -56 325 25 170 58 275 136 430 96 191 99 210 100 620 0 323 -4 371 -54 578 l-17 73 37 90 c36 88 37 89 100 124 161 89 220 200 164 310 l-13 25 227 111 c124 62 267 139 316 171 108 72 260 197 374 310 46 46 89 83 95 83 7 0 38 7 70 15 157 41 893 567 1365 976 79 68 176 146 215 172 39 27 73 53 75 59 2 6 -3 28 -10 50 -13 40 -13 40 21 68 26 21 42 27 62 23 19 -4 36 2 60 20 60 44 74 49 110 34 18 -8 42 -24 52 -36 11 -11 30 -21 44 -21 15 0 42 -16 69 -41 53 -49 93 -67 158 -71 47 -3 50 -1 50 20 0 19 -11 28 -55 47 -30 12 -70 38 -89 56 -39 39 -115 148 -108 155 2 3 110 6 238 7 264 2 236 9 406 -92 112 -67 193 -68 264 -4 22 20 39 45 39 57 0 21 -156 179 -317 321 -89 78 -221 172 -318 226 -78 43 -191 126 -287 210 -105 92 -162 125 -192 111 -26 -11 -103 -139 -131 -217 -13 -33 -40 -71 -80 -113 -34 -34 -72 -81 -86 -104 -13 -23 -37 -53 -54 -67 -16 -14 -65 -61 -108 -105 -120 -121 -154 -146 -205 -146 -23 0 -57 -6 -75 -14 -18 -7 -117 -77 -220 -155 -130 -99 -202 -147 -235 -156 -68 -20 -135 -64 -324 -210 -285 -219 -419 -313 -523 -366 -55 -29 -111 -60 -125 -70 -27 -18 -180 -56 -360 -90 -153 -28 -266 -62 -393 -120 -215 -96 -632 -261 -722 -284 -128 -34 -229 -71 -311 -116 -39 -21 -84 -39 -98 -39 -31 0 -378 176 -601 305 -186 107 -528 276 -740 365 -59 24 -124 63 -190 112 -224 168 -499 339 -743 462 -91 45 -395 263 -551 394 -75 63 -97 71 -146 52 -22 -8 -34 -4 -91 35 -36 25 -76 45 -89 45 -35 0 -117 53 -138 89 -10 17 -22 31 -27 31 -19 0 -72 56 -94 99 -32 61 -67 95 -115 109 -30 10 -46 23 -71 62 -18 28 -38 50 -46 50 -8 0 -14 7 -14 15 0 25 -79 103 -117 116 -25 8 -60 9 -112 4 -143 -15 -170 -12 -251 30 -93 47 -184 57 -267 27z"/>
 </g>

</svg>