<!DOCTYPE svg PUBLIC "-//W3C//DTD SVG 20010904//EN" "http://www.w3.org/TR/2001/REC-SVG-20010904/DTD/svg10.dtd">
<svg version="1.0" xmlns="http://www.w3.org/2000/svg" width="63px" height="58px" viewBox="0 0 630 580" preserveAspectRatio="xMidYMid meet">
<g id="layer101" fill="#ffffff" stroke="none">
 <path d="M411 566 c-8 -10 -9 -30 -2 -72 10 -59 9 -59 -22 -86 l-32 -27 -35 33 c-103 97 -150 122 -178 94 -22 -22 -13 -39 61 -118 70 -74 154 -209 140 -224 -14 -14 -47 -4 -80 24 -44 39 -71 38 -86 -3 -5 -13 6 -32 40 -68 l47 -51 56 7 c30 4 65 9 78 12 19 4 22 1 22 -24 0 -42 27 -63 83 -63 l47 0 0 40 c0 44 -26 80 -59 80 -16 0 -13 6 15 37 19 20 34 40 34 43 0 4 19 6 43 6 41 -1 42 -1 42 33 0 32 -4 36 -48 54 l-48 20 -34 -33 -34 -33 -11 27 c-16 42 -13 53 25 83 44 35 45 47 10 201 -4 16 -13 22 -34 22 -16 0 -34 -6 -40 -14z m58 -88 l12 -72 -41 -34 c-22 -19 -40 -38 -40 -44 0 -24 43 -128 53 -128 6 0 28 16 48 36 36 35 39 36 68 24 17 -7 31 -17 31 -22 0 -10 -17 -8 -50 6 -11 5 -26 -8 -50 -39 -44 -59 -80 -81 -155 -94 l-59 -11 -38 37 c-51 49 -49 65 2 19 33 -30 45 -35 68 -30 37 9 72 23 72 28 0 2 -13 34 -29 70 -35 77 -92 156 -149 208 -23 21 -42 43 -42 49 0 14 48 -21 121 -88 l59 -55 50 37 51 37 -7 69 c-9 93 10 90 25 -3z m36 -399 c4 -6 5 -12 2 -15 -7 -7 -37 7 -37 17 0 13 27 11 35 -2z"/>
 <path d="M20 495 c0 -11 11 -15 40 -15 29 0 40 4 40 15 0 11 -11 15 -40 15 -29 0 -40 -4 -40 -15z"/>
 <path d="M0 415 c0 -8 7 -15 15 -15 8 0 15 7 15 15 0 8 -7 15 -15 15 -8 0 -15 -7 -15 -15z"/>
 <path d="M40 415 c0 -11 12 -15 45 -15 33 0 45 4 45 15 0 11 -12 15 -45 15 -33 0 -45 -4 -45 -15z"/>
 <path d="M20 325 c0 -12 17 -15 95 -15 78 0 95 3 95 15 0 12 -17 15 -95 15 -78 0 -95 -3 -95 -15z"/>
 <path d="M50 245 c0 -12 13 -15 55 -15 42 0 55 3 55 15 0 12 -13 15 -55 15 -42 0 -55 -3 -55 -15z"/>
 <path d="M0 155 c0 -11 12 -15 45 -15 33 0 45 4 45 15 0 11 -12 15 -45 15 -33 0 -45 -4 -45 -15z"/>
 <path d="M100 155 c0 -8 7 -15 15 -15 8 0 15 7 15 15 0 8 -7 15 -15 15 -8 0 -15 -7 -15 -15z"/>
 <path d="M20 75 c0 -8 7 -15 15 -15 8 0 15 7 15 15 0 8 -7 15 -15 15 -8 0 -15 -7 -15 -15z"/>
 <path d="M60 75 c0 -12 15 -15 75 -15 60 0 75 3 75 15 0 12 -15 15 -75 15 -60 0 -75 -3 -75 -15z"/>
 </g>

</svg>