<!DOCTYPE svg PUBLIC "-//W3C//DTD SVG 20010904//EN" "http://www.w3.org/TR/2001/REC-SVG-20010904/DTD/svg10.dtd">
<svg version="1.0" xmlns="http://www.w3.org/2000/svg" width="68px" height="48px" viewBox="0 0 680 480" preserveAspectRatio="xMidYMid meet">
<g id="layer101" fill="#ffffff" stroke="none">
 <path d="M415 465 c-22 -8 -51 -28 -65 -44 -25 -29 -29 -30 -120 -33 -64 -2 -95 -7 -98 -15 -3 -10 29 -13 137 -13 119 0 141 2 141 15 0 8 -7 15 -15 15 -27 0 -16 17 23 36 52 26 193 27 219 2 27 -28 3 -41 -72 -42 l-65 -1 5 -27 c4 -16 0 -40 -11 -60 -10 -20 -18 -57 -18 -96 -1 -51 -4 -61 -16 -56 -63 27 -69 27 -110 15 -50 -15 -83 -61 -74 -103 9 -42 -13 -35 -90 28 -49 41 -65 59 -57 67 18 18 13 29 -11 25 -18 -2 -24 -11 -26 -34 -3 -29 4 -37 70 -88 61 -48 78 -56 108 -54 31 3 35 7 38 33 5 57 12 72 37 83 35 16 60 15 96 -4 16 -8 39 -12 49 -9 17 5 20 16 20 70 0 40 8 83 21 118 21 55 21 55 70 59 61 6 79 21 79 65 0 29 -5 36 -35 49 -44 18 -177 18 -230 -1z"/>
 <path d="M287 330 c-9 -11 -27 -20 -40 -20 -14 0 -40 -17 -67 -45 -39 -39 -49 -45 -87 -45 -32 0 -43 -4 -43 -15 0 -12 18 -15 105 -15 87 0 105 3 105 15 0 10 -10 15 -30 15 -30 0 -30 0 -14 25 9 14 33 29 55 35 34 9 69 41 69 62 0 16 -36 7 -53 -12z"/>
 <path d="M7 303 c-4 -3 -7 -12 -7 -20 0 -10 21 -13 88 -13 82 0 112 8 112 32 0 10 -184 11 -193 1z"/>
 </g>

</svg>