<!DOCTYPE svg PUBLIC "-//W3C//DTD SVG 20010904//EN" "http://www.w3.org/TR/2001/REC-SVG-20010904/DTD/svg10.dtd">
<svg version="1.0" xmlns="http://www.w3.org/2000/svg" width="54px" height="48px" viewBox="0 0 540 480" preserveAspectRatio="xMidYMid meet">
<g id="layer101" fill="#ffffff" stroke="none">
 <path d="M295 455 c-26 -25 -34 -75 -12 -75 6 0 19 15 27 33 18 38 61 48 91 21 27 -24 24 -59 -7 -83 -25 -20 -40 -21 -210 -21 -157 0 -184 -2 -184 -15 0 -13 28 -15 191 -15 192 0 219 4 246 39 20 25 15 85 -8 115 -29 36 -99 37 -134 1z"/>
 <path d="M0 235 c0 -13 33 -15 238 -15 219 0 240 -2 255 -18 31 -34 16 -83 -30 -97 -25 -7 -73 32 -73 60 0 8 -7 15 -15 15 -26 0 -17 -49 14 -81 33 -32 67 -37 110 -14 33 17 41 33 41 84 0 26 -7 44 -23 59 -23 21 -30 22 -270 22 -213 0 -247 -2 -247 -15z"/>
 <path d="M0 166 c0 -14 17 -16 116 -16 122 0 150 -8 163 -43 27 -72 -80 -108 -109 -37 -13 31 -40 41 -40 15 0 -25 27 -72 45 -79 21 -8 79 -8 100 0 26 10 48 62 41 99 -12 61 -32 70 -182 73 -117 3 -134 2 -134 -12z"/>
 </g>

</svg>